<svg xmlns="http://www.w3.org/2000/svg" version="1.1" xmlns:xlink="http://www.w3.org/1999/xlink" xmlns:svgjs="http://svgjs.dev/svgjs" width="1000" height="1000" viewBox="0 0 1000 1000"><rect width="1000" height="1000" fill="#ffffff"></rect><g transform="matrix(0.7,0,0,0.7,150.171717734602,114.61231801590327)"><svg viewBox="0 0 224 247" data-background-color="#ffffff" preserveAspectRatio="xMidYMid meet" height="1102" width="1000" xmlns="http://www.w3.org/2000/svg" xmlns:xlink="http://www.w3.org/1999/xlink"><g id="tight-bounds" transform="matrix(1,0,0,1,-0.05494967507263482,-0.09999669441521064)"><svg viewBox="0 0 224.10989010989007 247.2" height="247.2" width="224.10989010989007"><g><svg viewBox="0 0 224.10989010989007 247.2" height="247.2" width="224.10989010989007"><g><svg viewBox="0 0 224.10989010989007 247.2" height="247.2" width="224.10989010989007"><g><svg viewBox="0 0 224.10989010989007 247.2" height="247.2" width="224.10989010989007" id="textblock"><g><svg viewBox="0 0 224.10989010989007 247.2" height="247.2" width="224.10989010989007"><g transform="matrix(1,0,0,1,0,0)"><svg width="224.10989010989007" viewBox="1.0299999713897705 -31.3799991607666 28.44999885559082 31.3799991607666" height="247.2" data-palette-color="#31c48d"><g class="undefined-text-0" data-fill-palette-color="primary" id="text-0"><path d="M18.85-27.93L29.43-2.41Q29.48-2.07 29.48-1.72 29.48-1.38 29.31-1.03 29.14-0.69 28.85-0.52L28.85-0.52Q28.28 0 27.59 0L27.59 0Q26.21 0 25.75-1.21L25.75-1.21 22.93-8.16 7.41-8.16 4.66-1.21Q4.25 0 3.05 0 1.84 0 1.21-1.03L1.21-1.03Q1.03-1.38 1.03-1.67 1.03-1.95 1.21-2.41L1.21-2.41 11.61-27.93Q12.76-30.8 14.25-31.21L14.25-31.21Q14.66-31.26 15.29-31.38L15.29-31.38Q16.44-31.38 17.01-30.86L17.01-30.86Q17.93-30.17 18.85-27.93L18.85-27.93ZM15.17-28.1L8.51-11.21 21.9-11.21 15.17-28.1Z" fill="#000000" data-fill-palette-color="primary"></path></g></svg></g></svg></g></svg></g></svg></g></svg></g><defs></defs></svg><rect width="224.10989010989007" height="247.2" fill="none" stroke="none" visibility="hidden"></rect></g></svg></g></svg>